<svg width="74" height="71" viewBox="0 0 74 71" fill="none" xmlns="http://www.w3.org/2000/svg">
<path d="M30.4228 40.209C27.7242 36.7744 28.9479 31.8214 33.304 29.1182C37.6601 26.4149 42.1158 27.3492 43.4289 31.1579C44.7419 34.9666 43.4457 39.9595 40.5539 42.2602C37.6622 44.561 33.1277 43.6552 30.4228 40.209Z" stroke="#2D3042" stroke-width="1.45816" stroke-miterlimit="10"/>
<path d="M46.4864 29.2157C47.9055 34.9022 46.0138 42.1299 42.2104 45.2638C38.4071 48.3976 31.7674 47.0471 27.3516 42.1281C22.9358 37.2091 24.8281 30.0111 31.634 26.0915C38.4398 22.1719 45.049 23.5243 46.4864 29.2157Z" stroke="#2D3042" stroke-width="1.45816" stroke-miterlimit="10"/>
<path d="M49.627 27.426C50.8596 35.0317 48.3476 44.4778 43.8006 48.2921C39.2536 52.1063 30.5685 50.248 24.1316 43.9224C17.6947 37.5967 20.2275 28.2741 29.8976 23.0897C39.5676 17.9052 48.3315 19.735 49.627 27.426Z" stroke="#2D3042" stroke-width="1.45816" stroke-miterlimit="10"/>
<path d="M52.8823 25.8409C53.5985 35.3675 50.3995 47.0539 45.5121 51.2511C40.6246 55.4482 29.713 53.1822 20.9186 45.4401C12.2963 38.0385 15.4469 26.3788 28.2825 20.0185C41.118 13.6581 51.9826 16.0103 52.8823 25.8409Z" stroke="#2D3042" stroke-width="1.45816" stroke-miterlimit="10"/>
<path d="M56.2702 24.4982C56.1089 35.9198 52.3502 49.7913 47.1625 54.2442C41.9748 58.6971 29.0178 55.9232 17.4922 46.7159C6.41163 38.3438 10.1825 24.4656 26.6063 16.9814C43.0301 9.49721 56.0068 12.3353 56.2702 24.4982Z" stroke="#2D3042" stroke-width="1.45816" stroke-miterlimit="10"/>
<path d="M13.8947 47.6772C0.197379 38.6472 4.55038 22.4816 24.9241 13.9292C45.2978 5.37672 60.3797 8.65952 59.8299 23.4625C58.3724 36.6199 54.0257 52.7971 48.8069 57.2221C43.588 61.6471 28.5766 58.5206 13.8947 47.6772Z" stroke="#2D3042" stroke-width="1.45816" stroke-miterlimit="10"/>
<path d="M48.3252 25.5049L35.5727 38.2574L28.8609 31.5455L18.7931 41.6133" stroke="#F19972" stroke-width="6.5" stroke-linecap="round" stroke-linejoin="round"/>
<path d="M40.2709 25.5049H48.3251V33.5591" stroke="#F19972" stroke-width="6.5" stroke-linecap="round" stroke-linejoin="round"/>
<path d="M48.3252 25.5049L35.5727 38.2574L28.8609 31.5455L18.7931 41.6133" stroke="#2D3042" stroke-width="3.57249" stroke-linecap="round" stroke-linejoin="round"/>
<path d="M40.2709 25.5049H48.3251V33.5591" stroke="#2D3042" stroke-width="3.57249" stroke-linecap="round" stroke-linejoin="round"/>
</svg>
