<svg width="43" height="44" viewBox="0 0 43 44" fill="none" xmlns="http://www.w3.org/2000/svg">
<g clip-path="url(#clip0_645_1594)">
<path d="M21.4987 27.3752C24.467 27.3752 26.8733 24.9689 26.8733 22.0006C26.8733 19.0323 24.467 16.626 21.4987 16.626C18.5303 16.626 16.124 19.0323 16.124 22.0006C16.124 24.9689 18.5303 27.3752 21.4987 27.3752Z" stroke="#2D3042" stroke-width="2.75" stroke-linecap="round" stroke-linejoin="round"/>
<path d="M34.7559 27.3756C34.5174 27.9159 34.4463 28.5153 34.5517 29.0965C34.6571 29.6777 34.9341 30.214 35.3471 30.6362L35.4546 30.7437C35.7878 31.0764 36.0521 31.4716 36.2324 31.9066C36.4127 32.3416 36.5055 32.8078 36.5055 33.2787C36.5055 33.7496 36.4127 34.2158 36.2324 34.6508C36.0521 35.0858 35.7878 35.481 35.4546 35.8137C35.1219 36.1469 34.7267 36.4112 34.2917 36.5915C33.8567 36.7718 33.3905 36.8646 32.9196 36.8646C32.4487 36.8646 31.9825 36.7718 31.5475 36.5915C31.1125 36.4112 30.7173 36.1469 30.3846 35.8137L30.2771 35.7063C29.8548 35.2932 29.3186 35.0162 28.7374 34.9108C28.1562 34.8054 27.5568 34.8766 27.0165 35.115C26.4866 35.3421 26.0347 35.7192 25.7163 36.1999C25.398 36.6805 25.2272 37.2438 25.2249 37.8203V38.1248C25.2249 39.0751 24.8474 39.9865 24.1754 40.6585C23.5035 41.3304 22.5921 41.7079 21.6418 41.7079C20.6915 41.7079 19.7802 41.3304 19.1082 40.6585C18.4362 39.9865 18.0587 39.0751 18.0587 38.1248V37.9636C18.0449 37.3706 17.8529 36.7955 17.5078 36.3131C17.1628 35.8306 16.6806 35.4631 16.1239 35.2584C15.5835 35.0199 14.9841 34.9487 14.4029 35.0541C13.8218 35.1595 13.2855 35.4366 12.8632 35.8496L12.7558 35.9571C12.423 36.2902 12.0278 36.5545 11.5928 36.7348C11.1579 36.9151 10.6916 37.0079 10.2207 37.0079C9.74985 37.0079 9.28359 36.9151 8.84861 36.7348C8.41363 36.5545 8.01846 36.2902 7.68569 35.9571C7.35254 35.6243 7.08826 35.2291 6.90794 34.7941C6.72762 34.3592 6.63481 33.8929 6.63481 33.422C6.63481 32.9512 6.72762 32.4849 6.90794 32.0499C7.08826 31.6149 7.35254 31.2198 7.68569 30.887L7.79318 30.7795C8.2062 30.3573 8.48326 29.821 8.58863 29.2398C8.69401 28.6587 8.62287 28.0593 8.38439 27.5189C8.15729 26.989 7.7802 26.5371 7.29955 26.2188C6.81889 25.9005 6.25565 25.7296 5.67916 25.7273H5.37459C4.4243 25.7273 3.51293 25.3498 2.84097 24.6779C2.16901 24.0059 1.7915 23.0946 1.7915 22.1443C1.7915 21.194 2.16901 20.2826 2.84097 19.6106C3.51293 18.9387 4.4243 18.5612 5.37459 18.5612H5.53583C6.12882 18.5473 6.70393 18.3554 7.18638 18.0103C7.66883 17.6652 8.03632 17.183 8.24106 16.6263C8.47955 16.0859 8.55069 15.4865 8.44531 14.9054C8.33993 14.3242 8.06287 13.7879 7.64985 13.3657L7.54236 13.2582C7.20922 12.9254 6.94493 12.5303 6.76462 12.0953C6.5843 11.6603 6.49149 11.194 6.49149 10.7232C6.49149 10.2523 6.5843 9.78603 6.76462 9.35105C6.94493 8.91607 7.20922 8.5209 7.54236 8.18813C7.87513 7.85498 8.27031 7.5907 8.70529 7.41038C9.14027 7.23007 9.60652 7.13725 10.0774 7.13725C10.5483 7.13725 11.0145 7.23007 11.4495 7.41038C11.8845 7.5907 12.2797 7.85498 12.6124 8.18813L12.7199 8.29562C13.1422 8.70864 13.6784 8.9857 14.2596 9.09107C14.8408 9.19645 15.4402 9.12531 15.9805 8.88683H16.1239C16.6537 8.65973 17.1057 8.28264 17.424 7.80199C17.7423 7.32133 17.9131 6.75809 17.9154 6.1816V5.87703C17.9154 4.92674 18.2929 4.01537 18.9649 3.34341C19.6368 2.67145 20.5482 2.29395 21.4985 2.29395C22.4488 2.29395 23.3602 2.67145 24.0321 3.34341C24.7041 4.01537 25.0816 4.92674 25.0816 5.87703V6.03827C25.0839 6.61477 25.2547 7.17801 25.573 7.65866C25.8913 8.13932 26.3432 8.5164 26.8731 8.74351C27.4135 8.98199 28.0129 9.05313 28.5941 8.94775C29.1752 8.84237 29.7115 8.56531 30.1337 8.1523L30.2412 8.0448C30.574 7.71166 30.9692 7.44738 31.4042 7.26706C31.8391 7.08674 32.3054 6.99393 32.7763 6.99393C33.2471 6.99393 33.7134 7.08674 34.1484 7.26706C34.5834 7.44738 34.9785 7.71166 35.3113 8.0448C35.6444 8.37758 35.9087 8.77275 36.089 9.20773C36.2694 9.64271 36.3622 10.109 36.3622 10.5798C36.3622 11.0507 36.2694 11.517 36.089 11.9519C35.9087 12.3869 35.6444 12.7821 35.3113 13.1149L35.2038 13.2224C34.7908 13.6446 34.5137 14.1809 34.4084 14.762C34.303 15.3432 34.3741 15.9426 34.6126 16.483V16.6263C34.8397 17.1562 35.2168 17.6081 35.6974 17.9264C36.1781 18.2447 36.7413 18.4155 37.3178 18.4178H37.6224C38.5727 18.4178 39.4841 18.7954 40.156 19.4673C40.828 20.1393 41.2055 21.0506 41.2055 22.0009C41.2055 22.9512 40.828 23.8626 40.156 24.5346C39.4841 25.2065 38.5727 25.584 37.6224 25.584H37.4612C36.8847 25.5863 36.3214 25.7571 35.8408 26.0755C35.3601 26.3938 34.983 26.8457 34.7559 27.3756V27.3756Z" stroke="#2D3042" stroke-width="2.75" stroke-linecap="round" stroke-linejoin="round"/>
</g>
<defs>
<clipPath id="clip0_645_1594">
<rect width="42.9971" height="42.9971" fill="white" transform="translate(0 0.501953)"/>
</clipPath>
</defs>
</svg>
