<svg width="36" height="39" viewBox="0 0 36 39" fill="none" xmlns="http://www.w3.org/2000/svg">
<path d="M12.9999 32.0798C4.66658 34.5798 4.66659 27.9131 1.33325 27.0798M24.6666 37.0798V30.6298C24.7291 29.8351 24.6217 29.0362 24.3516 28.2861C24.0815 27.5361 23.6548 26.8522 23.0999 26.2798C28.3333 25.6965 33.8333 23.7131 33.8333 14.6131C33.8328 12.2862 32.9377 10.0485 31.3333 8.36314C32.093 6.32732 32.0393 4.07706 31.1833 2.07981C31.1833 2.07981 29.2166 1.49648 24.6666 4.54648C20.8466 3.51118 16.8199 3.51118 12.9999 4.54648C8.44992 1.49648 6.48325 2.07981 6.48325 2.07981C5.62721 4.07706 5.57349 6.32732 6.33325 8.36314C4.7168 10.061 3.82079 12.3189 3.83325 14.6631C3.83325 23.6965 9.33325 25.6798 14.5666 26.3298C14.0182 26.8964 13.5954 27.5722 13.3254 28.313C13.0555 29.0539 12.9446 29.8433 12.9999 30.6298V37.0798" stroke="#4F5D74" stroke-width="2.5" stroke-linecap="round" stroke-linejoin="round"/>
</svg>
