<svg width="90" height="90" viewBox="0 0 90 90" fill="none" xmlns="http://www.w3.org/2000/svg">
<g filter="url(#filter0_d_645_1782)">
<mask id="mask0_645_1782" style="mask-type:alpha" maskUnits="userSpaceOnUse" x="9" y="5" width="72" height="72">
<circle cx="45" cy="41" r="36" fill="#F8F2F2"/>
</mask>
<g mask="url(#mask0_645_1782)">
<circle cx="45" cy="41" r="36" fill="#F8F2F2"/>
<path d="M58.7903 56.513V53.0542C58.7903 51.2196 58.0615 49.4601 56.7642 48.1628C55.4669 46.8655 53.7074 46.1367 51.8727 46.1367H38.0377C36.2031 46.1367 34.4436 46.8655 33.1463 48.1628C31.849 49.4601 31.1202 51.2196 31.1202 53.0542V56.513" stroke="#2D3042" stroke-width="3.41072" stroke-linecap="round" stroke-linejoin="round"/>
<path d="M44.9551 39.2208C48.7756 39.2208 51.8727 36.1237 51.8727 32.3033C51.8727 28.4828 48.7756 25.3857 44.9551 25.3857C41.1347 25.3857 38.0376 28.4828 38.0376 32.3033C38.0376 36.1237 41.1347 39.2208 44.9551 39.2208Z" stroke="#2D3042" stroke-width="3.41072" stroke-linecap="round" stroke-linejoin="round"/>
</g>
</g>
<defs>
<filter id="filter0_d_645_1782" x="0" y="0" width="90" height="90" filterUnits="userSpaceOnUse" color-interpolation-filters="sRGB">
<feFlood flood-opacity="0" result="BackgroundImageFix"/>
<feColorMatrix in="SourceAlpha" type="matrix" values="0 0 0 0 0 0 0 0 0 0 0 0 0 0 0 0 0 0 127 0" result="hardAlpha"/>
<feOffset dy="4"/>
<feGaussianBlur stdDeviation="4.5"/>
<feComposite in2="hardAlpha" operator="out"/>
<feColorMatrix type="matrix" values="0 0 0 0 0.0972222 0 0 0 0 0.102381 0 0 0 0 0.133333 0 0 0 0.2 0"/>
<feBlend mode="normal" in2="BackgroundImageFix" result="effect1_dropShadow_645_1782"/>
<feBlend mode="normal" in="SourceGraphic" in2="effect1_dropShadow_645_1782" result="shape"/>
</filter>
</defs>
</svg>
