<svg width="72" height="70" viewBox="0 0 72 70" fill="none" xmlns="http://www.w3.org/2000/svg">
<path d="M29.7423 39.3091C27.1041 35.9513 28.3004 31.1091 32.5591 28.4663C36.8177 25.8235 41.1738 26.7369 42.4574 30.4604C43.7411 34.1839 42.4738 39.0652 39.6468 41.3144C36.8197 43.5637 32.3866 42.6781 29.7423 39.3091Z" stroke="#4F5D74" stroke-width="1.0713" stroke-miterlimit="10"/>
<path d="M45.4467 28.5613C46.834 34.1206 44.9847 41.1867 41.2664 44.2504C37.5481 47.3142 31.0569 45.9938 26.7399 41.1849C22.4229 36.376 24.2729 29.3389 30.9265 25.507C37.5801 21.6751 44.0414 22.9973 45.4467 28.5613Z" stroke="#4F5D74" stroke-width="1.0713" stroke-miterlimit="10"/>
<path d="M48.5168 26.8126C49.7219 34.2481 47.2661 43.4829 42.8208 47.2119C38.3755 50.9408 29.8847 49.1241 23.5917 42.9399C17.2988 36.7557 19.775 27.6417 29.2287 22.5732C38.6825 17.5047 47.2504 19.2936 48.5168 26.8126Z" stroke="#4F5D74" stroke-width="1.0713" stroke-miterlimit="10"/>
<path d="M51.6992 25.2628C52.3994 34.5763 49.272 46.0013 44.4939 50.1046C39.7158 54.2079 29.0482 51.9925 20.4506 44.4237C12.0211 37.1876 15.1012 25.7887 27.6497 19.5706C40.1981 13.3526 50.8197 15.6521 51.6992 25.2628Z" stroke="#4F5D74" stroke-width="1.0713" stroke-miterlimit="10"/>
<path d="M55.0115 23.95C54.8539 35.1161 51.1792 48.6773 46.1075 53.0306C41.0359 57.3839 28.3687 54.672 17.1009 45.6707C6.26824 37.4859 9.95474 23.9182 26.0112 16.6014C42.0676 9.28456 54.754 12.0591 55.0115 23.95Z" stroke="#4F5D74" stroke-width="1.0713" stroke-miterlimit="10"/>
<path d="M13.5839 46.6107C0.192937 37.7828 4.44856 21.9788 24.3665 13.6176C44.2845 5.25648 59.029 8.46586 58.4915 22.9377C57.0666 35.8008 52.8171 51.6161 47.7151 55.9421C42.613 60.2682 27.9374 57.2115 13.5839 46.6107Z" stroke="#4F5D74" stroke-width="1.0713" stroke-miterlimit="10"/>
<path d="M47.2443 24.9346L34.7771 37.4018L28.2154 30.8401L18.3728 40.6827" stroke="#2D3042" stroke-width="5.24937" stroke-linecap="round" stroke-linejoin="round"/>
<path d="M39.3704 24.9346H47.2444V32.8086" stroke="#2D3042" stroke-width="5.24937" stroke-linecap="round" stroke-linejoin="round"/>
<path d="M47.2443 24.9346L34.7771 37.4018L28.2154 30.8401L18.3728 40.6827" stroke="#4F5D74" stroke-width="2.62469" stroke-linecap="round" stroke-linejoin="round"/>
<path d="M39.3704 24.9346H47.2444V32.8086" stroke="#4F5D74" stroke-width="2.62469" stroke-linecap="round" stroke-linejoin="round"/>
</svg>
