<svg width="24" height="22" viewBox="0 0 24 22" fill="none" xmlns="http://www.w3.org/2000/svg">
<path d="M22 17.125C22 17.5891 21.7893 18.0342 21.4142 18.3624C21.0391 18.6906 20.5304 18.875 20 18.875H4C3.46957 18.875 2.96086 18.6906 2.58579 18.3624C2.21071 18.0342 2 17.5891 2 17.125V4.875C2 4.41087 2.21071 3.96575 2.58579 3.63756C2.96086 3.30937 3.46957 3.125 4 3.125H9L11 5.75H20C20.5304 5.75 21.0391 5.93437 21.4142 6.26256C21.7893 6.59075 22 7.03587 22 7.5V17.125Z" stroke="#2D3042" stroke-width="2" stroke-linecap="round" stroke-linejoin="round"/>
<path d="M12 10.125V15.375" stroke="#2D3042" stroke-width="2" stroke-linecap="round" stroke-linejoin="round"/>
<path d="M9 12.75H15" stroke="#2D3042" stroke-width="2" stroke-linecap="round" stroke-linejoin="round"/>
</svg>
