<svg width="20" height="18" viewBox="0 0 20 18" fill="none" xmlns="http://www.w3.org/2000/svg">
<path d="M18.6584 8.83338L15.7143 6.61963L18.6675 4.37963C18.7843 4.29107 18.8768 4.17611 18.9368 4.04489C18.9969 3.91367 19.0226 3.7702 19.0117 3.62713C18.9973 3.48459 18.9489 3.34722 18.8703 3.22577C18.7917 3.10433 18.6851 3.00211 18.5587 2.92713L13.9025 0.363376C13.739 0.274517 13.5509 0.236894 13.3643 0.255703C13.1777 0.274511 13.0018 0.348824 12.8607 0.468376L9.95286 2.91838L7.04498 0.468376C6.90397 0.348824 6.72801 0.274511 6.5414 0.255703C6.35479 0.236894 6.16674 0.274517 6.00321 0.363376L1.34698 2.92713C1.22065 3.00211 1.11402 3.10433 1.03544 3.22577C0.956859 3.34722 0.90846 3.48459 0.894037 3.62713C0.883153 3.7702 0.908857 3.91367 0.968886 4.04489C1.02891 4.17611 1.12143 4.29107 1.23827 4.37963L4.19145 6.61963L1.24733 8.79838C1.12883 8.88599 1.03457 9.00053 0.972936 9.13181C0.911301 9.26309 0.884199 9.40704 0.894037 9.55088C0.904075 9.69455 0.950666 9.8336 1.02968 9.95571C1.10869 10.0778 1.21768 10.1792 1.34698 10.2509L4.43604 12.0009V14.1621C4.43668 14.3117 4.47699 14.4585 4.55311 14.5887C4.62923 14.7189 4.73863 14.8281 4.87086 14.9059L9.4818 17.6446C9.61951 17.7214 9.77573 17.7619 9.93474 17.7619C10.0938 17.7619 10.25 17.7214 10.3877 17.6446L14.9986 14.9059C15.1309 14.8281 15.2403 14.7189 15.3164 14.5887C15.3925 14.4585 15.4328 14.3117 15.4334 14.1621V11.9921L18.5225 10.2859C18.6518 10.2142 18.7608 10.1128 18.8398 9.99071C18.9188 9.8686 18.9654 9.72955 18.9755 9.58588C18.9895 9.44503 18.968 9.30299 18.9128 9.17193C18.8576 9.04087 18.7703 8.9247 18.6584 8.83338ZM13.5764 2.19213L16.5024 3.80213L14.1924 5.55213L11.4747 3.94213L13.5764 2.19213ZM12.589 6.67213L9.95286 8.42213L7.31674 6.67213L9.95286 5.10588L12.589 6.67213ZM3.42145 3.80213L6.32933 2.19213L8.42192 3.94213L5.70427 5.55213L3.42145 3.80213ZM3.42145 9.39338L5.68616 7.71338L8.4038 9.53338L6.39274 11.0471L3.42145 9.39338ZM13.6489 13.6459L9.95286 15.8509L6.2478 13.6459V12.9459C6.38015 12.9773 6.51812 12.9794 6.65144 12.9521C6.78476 12.9249 6.90999 12.8689 7.0178 12.7884L9.95286 10.6009L12.8879 12.7884C13.046 12.9069 13.2404 12.9715 13.4405 12.9721C13.5127 12.9806 13.5857 12.9806 13.6579 12.9721L13.6489 13.6459ZM13.513 11.0209L11.4929 9.53338L14.2105 7.71338L16.4843 9.41088L13.513 11.0209Z" fill="#2D3042"/>
</svg>
