<svg width="106" height="106" viewBox="0 0 106 106" fill="none" xmlns="http://www.w3.org/2000/svg">
<path d="M61.8333 8.83301H26.5C24.1572 8.83301 21.9104 9.76366 20.2538 11.4202C18.5973 13.0768 17.6666 15.3236 17.6666 17.6663V88.333C17.6666 90.6758 18.5973 92.9225 20.2538 94.5791C21.9104 96.2357 24.1572 97.1663 26.5 97.1663H79.5C81.8427 97.1663 84.0895 96.2357 85.7461 94.5791C87.4026 92.9225 88.3333 90.6758 88.3333 88.333V35.333L61.8333 8.83301Z" stroke="#2D3042" stroke-width="3.8" stroke-linecap="round" stroke-linejoin="round"/>
<path d="M61.8334 8.83301V35.333H88.3334" stroke="#2D3042" stroke-width="3.8" stroke-linecap="round" stroke-linejoin="round"/>
<path d="M70.6667 57.417H35.3334" stroke="#2D3042" stroke-width="3.8" stroke-linecap="round" stroke-linejoin="round"/>
<path d="M70.6667 75.083H35.3334" stroke="#2D3042" stroke-width="3.8" stroke-linecap="round" stroke-linejoin="round"/>
<path d="M44.1667 39.75H39.75H35.3334" stroke="#2D3042" stroke-width="3.8" stroke-linecap="round" stroke-linejoin="round"/>
</svg>
